# xmcd CD database file
#
# Track frame offsets:
#	192
#	21325
#	34580
#	53307
#	72255
#	90842
#	105710
#	119007
#	136347
#	149912
#
# Disc length: 2303 seconds
#
# Revision: 3
# Processed by: cddbd v1.5.2PL0 Copyright (c) Steve Scherf et al.
# Submitted via: CDex 1.51
#
DISCID=8808fd0a
DTITLE=Glen Campbell - Show Me Your Way
DYEAR=1991
DGENRE=Jazz
TTITLE0=Glen Campbell duett with Russ Taff - The Greatest Gift Of All
TTITLE1=Jesus and Me
TTITLE2=Where Am I Going
TTITLE3=Wayward Son
TTITLE4=Unto The Least Of These
TTITLE5=Glen Campbell duett with Anne Murray - Show Me Your Way O Lord
TTITLE6=This Savior I Sing Of Today
TTITLE7=A Few Good Men
TTITLE8=Glen Campbell duett with Kelly Nelon Thompson - Where Shadows Never Fall
TTITLE9=The Four Horsemen
EXTD=YEAR: 1991
EXTT0=Duet with Russ Taff\n
EXTT1=
EXTT2=
EXTT3=
EXTT4=
EXTT5=Duet With Anne Murray\n
EXTT6=
EXTT7=
EXTT8=Duet With Kelly Nelon Thompson\n
EXTT9=
PLAYORDER=
